<svg id="Capa_1" data-name="Capa 1" xmlns="http://www.w3.org/2000/svg" width="264" height="152" viewBox="0 0 264 152"><defs><style>.cls-1{fill:none;stroke-width:4px;}.cls-1,.cls-2{stroke:#f8f8f8;stroke-miterlimit:10;}.cls-2{fill:#fff;stroke-width:0.75px;}</style></defs><title>ARM</title><path class="cls-1" d="M83.7,106.1,99.1,10.1h22.1l15.4,96.1"/><path class="cls-1" d="M143.6,106.1V10.1h22.8c15.6,0,22.4,7.3,22.4,22.1v7.5c0,9.9-3.2,16.2-9.9,19.4v.3c7.5,3.2,10,10.3,10,20.3V94.5c0,4.7.1,8.1,1.6,11.7"/><path class="cls-1" d="M198.6,106.1V10.1h21l11,68.2h.3L241,10.1h21v96.1"/><line class="cls-1" x1="34.4" y1="118.4" x2="262" y2="118.4"/><path class="cls-1" d="M36.3,106.4A113.9,113.9,0,0,1,24.9,92.7a180.4,180.4,0,0,1-13-20.6A110.7,110.7,0,0,1,4.2,54.7,36.8,36.8,0,0,1,2.3,38.1,41.7,41.7,0,0,1,7.4,22.5a41.1,41.1,0,0,1,8-9.9,39.8,39.8,0,0,1,8.2-5.8A38.6,38.6,0,0,1,37.2,2.5L40.1,2h5.6l.7.2A43,43,0,0,1,59.8,5.7,40.8,40.8,0,0,1,74.8,17.5a39.8,39.8,0,0,1,7.3,14.3,36.1,36.1,0,0,1,.8,17.9A82.4,82.4,0,0,1,76,67.9,166.1,166.1,0,0,1,64.3,87.7a139,139,0,0,1-13.6,17.4m-7.8-35A27.3,27.3,0,1,0,15.6,42.9,27.3,27.3,0,0,0,42.9,70.1Z"/><path class="cls-2" d="M43,142.5H37.8l-2.1,5.6h-.9l5.6-15,5.6,15h-.9Zm-.3-.8-2.3-6.2-2.3,6.2Z"/><path class="cls-2" d="M49.1,140v8.2h-.8V140h-.9v-.8h.9v-2.4a2.6,2.6,0,0,1,.8-1.8,2.6,2.6,0,0,1,1.8-.7l1.1.2-.3.7-.8-.2a1.9,1.9,0,0,0-1.3.5,1.7,1.7,0,0,0-.6,1.2v2.4H51v.8Z"/><path class="cls-2" d="M53.9,140v8.2h-.8V140h-.9v-.8h.9v-2.4a2.6,2.6,0,0,1,.8-1.8,2.6,2.6,0,0,1,1.8-.7l1.1.2-.3.7-.8-.2a1.9,1.9,0,0,0-1.3.5,1.7,1.7,0,0,0-.6,1.2v2.4h1.9v.8Z"/><path class="cls-2" d="M62,138.3a5,5,0,0,1,3.7,1.5,5,5,0,0,1,0,7.1,5.2,5.2,0,0,1-7.3,0,5,5,0,0,1,0-7.1A5,5,0,0,1,62,138.3Zm-3,2.1a4.1,4.1,0,0,0,0,5.9,4.3,4.3,0,0,0,6,0,4.1,4.1,0,0,0,0-5.9,4.3,4.3,0,0,0-6,0Z"/><path class="cls-2" d="M69.4,139.1h.8v1.6l.6-.7a3.5,3.5,0,0,1,2.3-1.1v.9a2.6,2.6,0,0,0-1.7.9,3.9,3.9,0,0,0-1.3,2.8v4.7h-.8Z"/><path class="cls-2" d="M85,148.2h-.8v-1.8l-.5.6a5.2,5.2,0,0,1-7.3,0,5,5,0,0,1,0-7.1,5.2,5.2,0,0,1,7.3,0l.5.6v-7H85Zm-.8-4v-1.6a4,4,0,0,0-1.2-2.1,4.3,4.3,0,0,0-6,0,4.1,4.1,0,0,0,0,5.9,4.3,4.3,0,0,0,6,0A4,4,0,0,0,84.1,144.2Z"/><path class="cls-2" d="M97.8,148.2h-.8v-1.8l-.5.6a5.2,5.2,0,0,1-7.3,0,5,5,0,0,1,0-7.1,5.2,5.2,0,0,1,7.3,0l.5.6v-1.3h.8Zm-.8-4v-1.6a4,4,0,0,0-1.2-2.1,4.3,4.3,0,0,0-6,0,4.1,4.1,0,0,0,0,5.9,4.3,4.3,0,0,0,6,0A4,4,0,0,0,96.9,144.2Z"/><path class="cls-2" d="M100.6,133.5h.8v6.9l.5-.6a5.2,5.2,0,0,1,7.3,0,5,5,0,0,1,0,7.1,5.2,5.2,0,0,1-7.3,0l-.5-.6v1.8h-.8Zm.8,9v1.7a4,4,0,0,0,1.2,2.1,4.3,4.3,0,0,0,6,0,4.1,4.1,0,0,0,0-5.9,4.3,4.3,0,0,0-6,0A4,4,0,0,0,101.5,142.5Z"/><path class="cls-2" d="M114.2,133.5v14.7h-.8V133.5Z"/><path class="cls-2" d="M118.8,146.5a4.1,4.1,0,0,0,2.8,1.1,4.2,4.2,0,0,0,3-1.2l.3-.3.9.3-.6.6a5.2,5.2,0,0,1-7.3,0,5,5,0,0,1,0-7.1,5.3,5.3,0,0,1,6.9-.4l.5.4.2.2-.6.6Zm5.4-6.4a4.3,4.3,0,0,0-5.6.4,4.1,4.1,0,0,0-.4,5.4Z"/><path class="cls-2" d="M138.4,143.1h-2.8v5.1h-.8V133.5h3.9a5,5,0,0,1,2.9,1.4,4.7,4.7,0,0,1,0,6.8,4.8,4.8,0,0,1-2.3,1.3l3.5,5.2h-1Zm-2.8-8.8v7.9h2.6a3.9,3.9,0,0,0,2.9-1.2,3.9,3.9,0,0,0,0-5.6,4,4,0,0,0-2.9-1.2Z"/><path class="cls-2" d="M146.4,146.5a4.1,4.1,0,0,0,2.8,1.1,4.2,4.2,0,0,0,3-1.2l.3-.3.9.3-.6.6a5.2,5.2,0,0,1-7.3,0,5,5,0,0,1,0-7.1,5.3,5.3,0,0,1,6.9-.4l.5.4.2.2-.6.6Zm5.4-6.4a4.3,4.3,0,0,0-5.6.4,4.1,4.1,0,0,0-.4,5.4Z"/><path class="cls-2" d="M156.5,141.2v7h-.8v-9h.8v.6a3.7,3.7,0,0,1,2.7-1.1,3.6,3.6,0,0,1,2.7,1,3.5,3.5,0,0,1,1.1,2.5v6h-.8v-6a2.6,2.6,0,0,0-.9-2,2.9,2.9,0,0,0-4,0A3.1,3.1,0,0,0,156.5,141.2Z"/><path class="cls-2" d="M167.1,139.1v-3.8h.8v3.8h1.9v.8h-1.9v8.2h-.8V140h-1.9v-.8Z"/><path class="cls-2" d="M182,148.2h-.8v-1.8l-.5.6a5.3,5.3,0,0,1-7.3,0,5,5,0,0,1,0-7.1,5.3,5.3,0,0,1,7.3,0l.5.6v-1.3h.8Zm-.8-4v-1.6a4,4,0,0,0-1.2-2.1,4.3,4.3,0,0,0-6,0,4.1,4.1,0,0,0,0,5.9,4.3,4.3,0,0,0,6,0A4,4,0,0,0,181.2,144.2Z"/><path class="cls-2" d="M185.7,133.5v14.7h-.8V133.5Z"/><path class="cls-2" d="M196.1,133.5l5.6,9.6,5.6-9.6h.9v14.6h-.8V135l-5.7,9.7L196,135v13.2h-.8V133.5h.9Z"/><path class="cls-2" d="M221.2,148.2h-.8v-1.8l-.5.6a5.3,5.3,0,0,1-7.3,0,5,5,0,0,1,0-7.1,5.3,5.3,0,0,1,7.3,0l.5.6v-1.3h.8Zm-.8-4v-1.6a4,4,0,0,0-1.2-2.1,4.3,4.3,0,0,0-6,0,4.1,4.1,0,0,0,0,5.9,4.3,4.3,0,0,0,6,0A4,4,0,0,0,220.3,144.2Z"/><path class="cls-2" d="M226.5,143.5l-1.5-1a2.1,2.1,0,0,1-.6-1.5,2.1,2.1,0,0,1,.6-1.5,2.1,2.1,0,0,1,1.6-.6,2.1,2.1,0,0,1,1.5.6,1.8,1.8,0,0,1,.6,1.3h0l-.7.3a1.8,1.8,0,0,0-.4-1,1.3,1.3,0,0,0-.9-.3,1.3,1.3,0,0,0-1,.4,1.3,1.3,0,0,0,0,1.9l1,.7a7.9,7.9,0,0,1,1.7,1.1,2.6,2.6,0,0,1,0,3.8,2.8,2.8,0,0,1-3.9,0,2.4,2.4,0,0,1-.8-1.7l.8-.2a1.8,1.8,0,0,0,.6,1.4,1.9,1.9,0,0,0,2.7,0,1.8,1.8,0,0,0,0-2.6Z"/><path class="cls-2" d="M231.5,133.5h.8v6.1a3.9,3.9,0,0,1,5.2,0,3.5,3.5,0,0,1,1.1,2.5v6h-.8v-6a2.6,2.6,0,0,0-.9-2,2.9,2.9,0,0,0-4,0l-.6.8v7.2h-.8Z"/><path class="cls-2" d="M245.3,148.3a3.8,3.8,0,0,1-2.8-1,3.5,3.5,0,0,1-1.1-2.5v-5.6h.8v5.5a2.6,2.6,0,0,0,.9,2,2.9,2.9,0,0,0,2.1.8,2.8,2.8,0,0,0,2-.8,2.6,2.6,0,0,0,.9-2v-5.5h.8v5.6a3.5,3.5,0,0,1-1.1,2.5A3.6,3.6,0,0,1,245.3,148.3Z"/><path class="cls-2" d="M251.8,139.1h.8v1.3l.5-.6a5.3,5.3,0,0,1,7.3,0,5,5,0,0,1,0,7.1,5.2,5.2,0,0,1-7.3,0l-.5-.6v5.3h-.8Zm.8,3.4v1.7a4,4,0,0,0,1.2,2.1,4.3,4.3,0,0,0,6,0,4.1,4.1,0,0,0,0-5.9,4.3,4.3,0,0,0-6,0A4,4,0,0,0,252.7,142.5Z"/></svg>