<svg xmlns="http://www.w3.org/2000/svg" width="35" height="35" viewBox="0 0 30 30"><defs><style>.cls-1{fill:#f77a26;}.cls-2{fill:#fefdfc;}.cls-3{fill:#f77a25;}</style></defs><title>Recurso 10</title><g id="Capa_2" data-name="Capa 2"><g id="Capa_1-2" data-name="Capa 1"><path class="cls-1" d="M16.3,30H13.6a2.3,2.3,0,0,0-.9-.2A15,15,0,0,1,.3,18.2a.5.5,0,0,1,.3-.6L14.3,9.7l.4-.2c0,.8,0,1.5,0,2.2s-.1.3-.3.4a7.7,7.7,0,1,0,1.4,0c-.3,0-.4-.1-.4-.4,0-2.5,0-5,0-7.5,0-1,0-1,1-.9a4.7,4.7,0,0,1,2.3.7,1.3,1.3,0,0,1,.4,2,1.9,1.9,0,0,1-1.3.8h-.3c-.2,0-.4.1-.4.3a.3.3,0,0,0,.4.3,2.6,2.6,0,0,0,2.2-1.4,1.9,1.9,0,0,0-.4-2.4A3.5,3.5,0,0,0,18,3a10.1,10.1,0,0,0-3-.4c-.3,0-.4.1-.4.4s0,2.4,0,3.7-.1.4-.4.4H2.6c-.1,0-.2.1-.3-.1l.2-.3C6.2,1.6,11.1-.7,17.3.2A14.8,14.8,0,0,1,29.7,12.1l.3,1.6v2.6a3.4,3.4,0,0,0-.2.9,15,15,0,0,1-12,12.4Z"/><path class="cls-2" d="M0,16.3c.2.3.1.6.2.8L.5,17,13.9,9.3a1.3,1.3,0,0,0,.8-1.4c0-.3-.1-.4-.4-.4H2.3a.5.5,0,0,0-.5.3A15.5,15.5,0,0,0,.2,12.4a3,3,0,0,1-.2,1m14.7,3.1c0-1,0-2,0-3s-.1-.4-.4-.4a6.8,6.8,0,1,0,1.5,0c-.3,0-.4.1-.4.4,0,2,0,4,0,6a2.4,2.4,0,0,1,0,.4.3.3,0,0,1-.3.3.3.3,0,0,1-.3-.2,1.6,1.6,0,0,1,0-.4Q14.7,18,14.7,16.5Z"/><path class="cls-3" d="M0,13.5a3,3,0,0,0,.2-1A15.5,15.5,0,0,1,1.8,7.8a.5.5,0,0,1,.5-.3h12c.3,0,.4.1.4.4a1.3,1.3,0,0,1-.8,1.4L.5,17l-.4.2c-.1-.3,0-.6-.2-.8Z"/><path class="cls-1" d="M14.7,16.5q0,1.5,0,3a1.6,1.6,0,0,0,0,.4.3.3,0,0,0,.3.2.3.3,0,0,0,.3-.3,2.4,2.4,0,0,0,0-.4c0-2,0-4,0-6,0-.3.1-.4.4-.4a6.7,6.7,0,1,1-1.5,0c.3-.1.4,0,.4.4S14.7,15.5,14.7,16.5Z"/></g></g></svg>