<svg xmlns="http://www.w3.org/2000/svg" width="35" height="35" viewBox="0 0 30.1 30"><defs><style>.cls-1{fill:#16860a;}.cls-2{fill:#fcfdfc;}.cls-3{fill:#f0f6f0;}.cls-4{fill:#f5f8f4;}</style></defs><title>Recurso 7</title><g id="Capa_2" data-name="Capa 2"><g id="Capa_1-2" data-name="Capa 1"><path class="cls-1" d="M12.1,29.7C5.8,28.2,1.3,24.5.3,18.2A13.9,13.9,0,0,1,0,15a15.3,15.3,0,0,1,.3-3.1A15,15,0,0,1,11.9.4L14,0a11.8,11.8,0,0,1,3.1.2c6,.9,9.9,4.4,12.1,10,.3.9.5,1.8.8,2.7a17,17,0,0,1-.3,5,14.9,14.9,0,0,1-9.9,11.3l-2.7.8H14Zm2.5-10.3c0-2.5,0-4.8,0-7.1s-.6-2.6-2.4-2.9a8.9,8.9,0,0,0-2.9,0c-.5.1-.7.3-.6.8q0,4,0,8c0,.5.2.6.6.5A6.9,6.9,0,0,1,14.5,19.5Zm.9.1a5.9,5.9,0,0,1,5.3-.8c.5.2.7,0,.7-.5,0-2.6,0-5.3,0-7.9,0-.4-.1-.7-.5-.8a6,6,0,0,0-4.5.6,1.6,1.6,0,0,0-.9,1.4C15.5,14.1,15.5,16.7,15.5,19.6Zm6.8.1c-3.6-.6-4.3-.6-5.9.1s-1.2.3-1,.8.8.1,1.2-.1a6.7,6.7,0,0,1,4.3-.5c.7.2,1.4,1.1,2.1.4s.1-1.5.2-2.3,0-3.8,0-5.7c0-.4,0-.8-.5-.7s-.4.4-.4.7,0,.5,0,.8C22.3,15.3,22.3,17.5,22.3,19.7Zm-14.5.1c0-.4,0-.6,0-.8q0-3.3,0-6.5c0-.3,0-.8-.4-.8s-.5.4-.5.7c0,2.5,0,5,0,7.5,0,.7.4.9.9.6a6.5,6.5,0,0,1,6.2.2c.3.1.7.2.8-.2s-.3-.4-.5-.5A7.7,7.7,0,0,0,7.7,19.7Z"/><path class="cls-2" d="M14.5,19.5a6.9,6.9,0,0,0-5.3-.8c-.4.1-.6,0-.6-.5q0-4,0-8c0-.5.2-.7.6-.8a8.9,8.9,0,0,1,2.9,0c1.8.4,2.4,1.1,2.4,2.9S14.5,17,14.5,19.5Z"/><path class="cls-2" d="M15.5,19.6c0-2.8,0-5.5,0-8.1a1.6,1.6,0,0,1,.9-1.4,6,6,0,0,1,4.5-.6c.4.1.5.4.5.8,0,2.6,0,5.3,0,7.9,0,.6-.2.7-.7.5A5.9,5.9,0,0,0,15.5,19.6Z"/><path class="cls-3" d="M22.3,19.7c0-2.2,0-4.4,0-6.5,0-.3,0-.5,0-.8s.1-.7.4-.7.5.4.5.7c0,1.9,0,3.8,0,5.7s.3,1.7-.2,2.3-1.4-.2-2.1-.4a6.7,6.7,0,0,0-4.3.5c-.4.2-1,.6-1.2.1s.6-.6,1-.8S18.7,19.1,22.3,19.7Z"/><path class="cls-4" d="M7.7,19.7a7.7,7.7,0,0,1,6.4.2c.2.1.6.2.5.5s-.5.3-.8.2a6.5,6.5,0,0,0-6.2-.2c-.5.3-.9,0-.9-.6,0-2.5,0-5,0-7.5,0-.4,0-.8.5-.7s.4.5.4.8q0,3.3,0,6.5C7.7,19.1,7.7,19.4,7.7,19.7Z"/><path class="cls-1" d="M16,31"/></g></g></svg>