<svg xmlns="http://www.w3.org/2000/svg" width="35" height="35" viewBox="0 0 30 29.1"><defs><style>.cls-1{fill:#3bb878;}.cls-2{fill:#fff;}</style></defs><title>Recurso 9</title><g id="Capa_2" data-name="Capa 2"><g id="Capa_1-2" data-name="Capa 1"><ellipse class="cls-1" cx="15" cy="14.5" rx="15" ry="14.5"/><path class="cls-2" d="M9.6,8.9l5.5,9.8H11.4c-.5,0-.7.1-.6.6s0,.9,0,1.3-.1.5-.5.5-1.9.1-1.8-1.7-.2-.8-.8-.7H4.1Z"/><path class="cls-2" d="M21.9,7.7l4.4,7.9H23.3c-.4,0-.6.1-.6.6s0,.5,0,.8-.2.8-.8.8-.9-.2-.8-.9,0-1.3-1.3-1.3H17.5Z"/><path class="cls-2" d="M12.1,11.8l4.1-7.4c1.1,2,2.3,5.2,3.3,7s-.7.3-1.2.4h-.4c-.7-.1-.9.2-.8.8s0,.4,0,.6-.1.5-.5.5h-.3c-1.2,0-1,.1-1-1s-.2-.9-.9-.8Z"/></g></g></svg>