<svg xmlns="http://www.w3.org/2000/svg" width="35" height="35" viewBox="0 0 25.5 28.3"><defs><style>.cls-1{fill:#997e49;}.cls-2{fill:#f4cd84;}.cls-3{fill:#feeda2;}.cls-4{fill:#997d47;}.cls-5{fill:#fdeca2;}</style></defs><title>Recurso 5</title><g id="Capa_2" data-name="Capa 2"><g id="Capa_1-2" data-name="Capa 1"><path class="cls-1" d="M0,16.1a13,13,0,0,1,1.3-5.1,10.2,10.2,0,0,0,.9-3.7,8.4,8.4,0,0,0-.5-2.9,12.9,12.9,0,0,0-.9-2,.2.2,0,0,1,.1-.4L3.6.1c.1-.1.2-.1.3,0A5.7,5.7,0,0,0,7,1.3a8.8,8.8,0,0,0,3.7-.2,4.9,4.9,0,0,0,2-1c.1-.1.2-.1.3,0a5.4,5.4,0,0,0,3,1.2A8.8,8.8,0,0,0,20.2.9,4.2,4.2,0,0,0,21.6.1a.2.2,0,0,1,.3,0l2.6,2c.2.1.2.2.1.4A12.7,12.7,0,0,0,23.3,6a7,7,0,0,0,.3,3.6c.4,1.1.9,2.2,1.2,3.3a10.8,10.8,0,0,1,.2,6.5A9.2,9.2,0,0,1,22,23.9a18.4,18.4,0,0,1-5.1,2.9l-3.5,1.3a1.6,1.6,0,0,1-1.4,0c-1.7-.7-3.5-1.2-5.2-2.1a13.9,13.9,0,0,1-5-3.8A9.4,9.4,0,0,1,0,16.1Zm.4.4a9,9,0,0,0,.5,3.3,8.9,8.9,0,0,0,2.2,3.3A15,15,0,0,0,7,25.7c1.5.8,3.2,1.3,4.8,1.9a2.4,2.4,0,0,0,2,0,47.9,47.9,0,0,0,5.6-2.3,13.5,13.5,0,0,0,3.6-2.8,8.4,8.4,0,0,0,2.2-5.2,11.3,11.3,0,0,0-.6-4.4c-.4-1.2-.9-2.2-1.3-3.4a7.7,7.7,0,0,1-.3-3.2,12.1,12.1,0,0,1,1.2-3.7c.1-.2.1-.3-.1-.4L21.9.6a.3.3,0,0,0-.4,0,4.8,4.8,0,0,1-1.4.7,9.2,9.2,0,0,1-3.9.4A6.5,6.5,0,0,1,12.9.6a.3.3,0,0,0-.4,0,5.1,5.1,0,0,1-1.8.8,9.1,9.1,0,0,1-3.4.3A7,7,0,0,1,3.9.6H3.6L1.4,2.2c-.2.1-.2.2-.1.4a15.2,15.2,0,0,1,.9,2.3,7.8,7.8,0,0,1,.2,3.7,13.4,13.4,0,0,1-.9,2.9A12.6,12.6,0,0,0,.4,16.5Z"/><path class="cls-2" d="M.4,16.5a12.6,12.6,0,0,1,1.2-5,13.4,13.4,0,0,0,.9-2.9,7.8,7.8,0,0,0-.2-3.7,15.2,15.2,0,0,0-.9-2.3c-.1-.2-.1-.2.1-.4L3.6.6h.3A7,7,0,0,0,7.3,1.7a9.1,9.1,0,0,0,3.4-.3A5.1,5.1,0,0,0,12.6.6a.3.3,0,0,1,.4,0,6.5,6.5,0,0,0,3.4,1.2,9.2,9.2,0,0,0,3.9-.4A4.8,4.8,0,0,0,21.6.6a.3.3,0,0,1,.4,0L24,2.2c.2.1.2.2.1.4a12.1,12.1,0,0,0-1.2,3.7,7.7,7.7,0,0,0,.3,3.2c.3,1.2.9,2.3,1.3,3.4a11.3,11.3,0,0,1,.6,4.4,8.4,8.4,0,0,1-2.2,5.2,13.5,13.5,0,0,1-3.6,2.8,47.9,47.9,0,0,1-5.6,2.3,2.4,2.4,0,0,1-2,0C10.2,27,8.5,26.5,7,25.7a15,15,0,0,1-3.8-2.6A8.9,8.9,0,0,1,.9,19.8,9,9,0,0,1,.4,16.5ZM12.7,6.7V6.5q0-1.8,0-3.5c0-.3,0-.3-.3-.2l-.8.3-2.5.5H7a8.9,8.9,0,0,1-3-.8H3.7a.2.2,0,0,0-.1.3v.3a11.2,11.2,0,0,1,.8,3.2,9.8,9.8,0,0,1-.3,3,19.7,19.7,0,0,1-1.1,3A9.7,9.7,0,0,0,2.4,18,6.5,6.5,0,0,0,4,21.3a13.5,13.5,0,0,0,4.9,3.2l3.6,1.4c.2.1.3,0,.3-.2q0-4.6,0-9.2h.2l1.9,1.1,1.9,1.1v-.4l-.9-3.8a.3.3,0,0,1,.1-.3l2.7-2.4.6-.5-4.2-.4a.4.4,0,0,1-.4-.3L13.3,7.9A5.9,5.9,0,0,0,12.7,6.7Z"/><path class="cls-3" d="M12.7,16.5q0,4.6,0,9.2c0,.2,0,.3-.3.2L8.8,24.5A13.5,13.5,0,0,1,4,21.3,6.5,6.5,0,0,1,2.4,18a9.7,9.7,0,0,1,.8-5.5,19.7,19.7,0,0,0,1.1-3,9.8,9.8,0,0,0,.3-3,11.2,11.2,0,0,0-.8-3.2V3.1a.2.2,0,0,1,.1-.3H4a8.9,8.9,0,0,0,3,.8H9.2l2.5-.5.8-.3c.3-.1.3-.1.3.2s0,2.3,0,3.5v.2L11,10.6a.4.4,0,0,1-.4.3l-3.3.3H6.5l3.1,2.7a.4.4,0,0,1,.1.4l-.5,2.1-.4,2,.4-.2Z"/><path class="cls-4" d="M12.7,16.5l-3.5,2-.4.2.4-2,.5-2.1a.4.4,0,0,0-.1-.4L6.5,11.4h.9l3.3-.3a.4.4,0,0,0,.4-.3l1.8-3.9a5.9,5.9,0,0,1,.6,1.2l1.2,2.7a.4.4,0,0,0,.4.3l4.2.4-.6.5-2.7,2.4a.3.3,0,0,0-.1.3l.9,3.8v.4l-1.9-1.1-1.9-1.1ZM16.1,18v-.2l-.8-3.4a.3.3,0,0,1,.1-.4L17,12.6l1.2-1.1-3.6-.4a.3.3,0,0,1-.3-.2l-.7-1.5-.8-1.9v.2L11.2,11c-.1.1-.1.2-.3.2l-1.8.2-1.9.2.2.2L10,14a.3.3,0,0,1,.1.4l-.4,2L9.4,18h.3l2.8-1.6a.6.6,0,0,1,.7,0l2,1.1Z"/><path class="cls-5" d="M16.1,18l-1-.6-2-1.1a.6.6,0,0,0-.7,0L9.7,17.8H9.4l.3-1.6.4-2A.3.3,0,0,0,10,14L7.5,11.8l-.2-.2,1.9-.2,1.8-.2c.2,0,.2-.1.3-.2l1.4-3.1V7.7l.8,1.9.7,1.5a.3.3,0,0,0,.3.2l3.6.4L17,12.6,15.4,14a.3.3,0,0,0-.1.4l.8,3.4Z"/></g></g></svg>