<svg xmlns="http://www.w3.org/2000/svg" width="35" height="35" viewBox="0 0 30 30"><defs><style>.cls-1{fill:#77b2d3;}.cls-2{fill:#4f5d73;}.cls-3{fill:#6795af;}.cls-4{fill:#f3ce86;}.cls-5{fill:#75c1ae;}.cls-6{fill:#c65c5c;}.cls-7{fill:#485262;}.cls-8{fill:#485162;}.cls-9{fill:#475263;}</style></defs><title>Recurso 4</title><g id="Capa_2" data-name="Capa 2"><g id="Capa_1-2" data-name="Capa 1"><path class="cls-1" d="M13.8,0h2.5l2.2.4a15,15,0,0,1,11.3,12,11.2,11.2,0,0,0,.2,1.4v2.4c-.1.1-.1.1-.1.2s-.1,1-.2,1.4A15,15,0,1,1,12.4.2Zm6.8,24.8c0-.2,0-.4,0-.6q0-9.2,0-18.4a1.4,1.4,0,0,0-1.6-1.6H10.9A1.4,1.4,0,0,0,9.4,5.8q0,9.2,0,18.5c0,.2,0,.4,0,.6a1.4,1.4,0,0,0,1.4,1.9h8.3A1.5,1.5,0,0,0,20.6,24.8Z"/><path class="cls-2" d="M9.4,24.8c0-.2,0-.4,0-.6q0-9.2,0-18.5a1.4,1.4,0,0,1,1.6-1.6h8.1a1.4,1.4,0,0,1,1.6,1.6q0,9.2,0,18.4c0,.2,0,.4,0,.6a1.8,1.8,0,0,1-1.8.9H10.9l-.8-.2A1.9,1.9,0,0,1,9.4,24.8ZM12.7,9.4h0a2.3,2.3,0,0,0,4.6.9,1.2,1.2,0,0,0,0-.9V9.3a2.2,2.2,0,0,0-.9-2.3A2.2,2.2,0,0,0,14,6.8,2.4,2.4,0,0,0,12.7,9.4Zm0,12.3a.9.9,0,0,0,0,.7,2.4,2.4,0,0,0,2.3,2,2.3,2.3,0,0,0,2.4-1.9,1,1,0,0,0,0-.7v-.2a2.3,2.3,0,0,0-3.9-2.1A2.4,2.4,0,0,0,12.7,21.7Zm4.5-6.1v-.2a2.3,2.3,0,1,0-4.6.1h0a2.3,2.3,0,0,0,4.6.9A1.2,1.2,0,0,0,17.3,15.6Z"/><path class="cls-3" d="M9.4,24.8a1.9,1.9,0,0,0,.6.7l.8.2h7.9a1.8,1.8,0,0,0,1.8-.9,1.5,1.5,0,0,1-1.4,1.9H10.9A1.4,1.4,0,0,1,9.4,24.8Z"/><path class="cls-4" d="M12.7,15.5a2.3,2.3,0,1,1,4.6-.1v.4a2.3,2.3,0,0,1-2.3,1.5A2.4,2.4,0,0,1,12.7,15.5Z"/><path class="cls-5" d="M12.7,21.7a2.4,2.4,0,0,1,.6-2.3,2.3,2.3,0,0,1,3.9,2.1v.4a2.3,2.3,0,0,1-2.7,1.5A2.4,2.4,0,0,1,12.7,21.7Z"/><path class="cls-6" d="M12.7,9.4A2.4,2.4,0,0,1,14,6.8a2.2,2.2,0,0,1,2.4.3,2.2,2.2,0,0,1,.9,2.3v.2L17,10a2.3,2.3,0,0,1-2.5,1.2A2.3,2.3,0,0,1,12.7,9.4Z"/><path class="cls-7" d="M12.7,15.5a2.4,2.4,0,0,0,2.2,1.8,2.3,2.3,0,0,0,2.3-1.5v-.2a1.2,1.2,0,0,1,0,.9,2.3,2.3,0,0,1-4.6-.9Z"/><path class="cls-8" d="M12.7,9.4a2.3,2.3,0,0,0,1.9,1.8A2.3,2.3,0,0,0,17,10l.2-.5a1.2,1.2,0,0,1,0,.9,2.3,2.3,0,0,1-4.6-.9Z"/><path class="cls-9" d="M12.7,21.7a2.4,2.4,0,0,0,1.8,1.6,2.3,2.3,0,0,0,2.7-1.5v-.2a1,1,0,0,1,0,.7,2.3,2.3,0,0,1-2.4,1.9,2.4,2.4,0,0,1-2.3-2A.9.9,0,0,1,12.7,21.7Z"/></g></g></svg>