<svg id="Capa_5" data-name="Capa 5" xmlns="http://www.w3.org/2000/svg" width="196.9" height="27.2" viewBox="0 0 196.9 32.2">
	<defs>
		<style>.cls-1{fill:#fff;}</style>
	</defs>
	<title>Sin título-1</title>
	<path class="cls-1" d="M164,32.2H147.1a15.1,15.1,0,0,1-3.9-.7,13.1,13.1,0,0,1-9.9-13.1q0-6.7,0-13.4a2.8,2.8,0,0,1,.2-.6h4.1c0,1.2,0,2.4,0,3.6,0,3.6-.1,7.2.1,10.8.4,5.2,2.9,8,8,8.7a17.2,17.2,0,0,0,7.1-.5c3.8-1.1,5.9-4.3,6-8.3s0-8.2,0-12.3c0-.6,0-1.3,0-2H164Z"/>
	<path class="cls-1" d="M171.3,32.2h-5.1V4.4h3.6c5.1.1,10.3-.2,15.3.4a13.2,13.2,0,0,1,11.7,13.7c-.2,4.5,0,9,0,13.6h-4.3c0-2.5,0-5,0-7.4s.1-4.7-.1-7c-.4-5.9-4.6-9.1-11.3-8.9s-9.6,3.9-9.8,9.5c-.1,4,0,7.9,0,11.9C171.3,30.7,171.3,31.4,171.3,32.2Z"/>
	<path class="cls-1" d="M9.4,0l2.9.4a5.9,5.9,0,0,1,2.9,1.4,5.2,5.2,0,0,1,1.6,4.3,7.9,7.9,0,0,1-.4,2.2,4.7,4.7,0,0,1-3.8,3l-2.9.3h-3c0,.2,0,.4,0,.5s0,3.1,0,4.6,0,.2,0,.3.7,2,2.1,2h.6v1.5H0V19.2H.9a1.7,1.7,0,0,0,1.8-1.8c0-.3,0-.6,0-.8q0-6.3,0-12.5a7.2,7.2,0,0,0-.1-1A1.6,1.6,0,0,0,1.2,1.6H0V0ZM6.6,9.8H9.5a3.5,3.5,0,0,0,3.6-3.6,3.5,3.5,0,0,0-2.3-3.9A12.7,12.7,0,0,0,6.6,2Z"/>
	<path class="cls-1" d="M53.1,20.7V19.5h1.1a1.2,1.2,0,0,0,1-1.1,6.1,6.1,0,0,0,.1-1q0-4.9,0-9.9V7.2c0-1.4-.5-1.9-1.9-1.9h-.3V4.2h7.4a15.7,15.7,0,0,1,4.7.6,6.5,6.5,0,0,1,4.8,5.4,12.3,12.3,0,0,1-.1,4.9,6.5,6.5,0,0,1-5.3,5.2,17.8,17.8,0,0,1-3.4.4H53.1ZM58.3,5.6V19.2c1.4-.1,2.7-.1,4-.3a4.9,4.9,0,0,0,4.2-3.6,10.7,10.7,0,0,0,.2-5.3,4.7,4.7,0,0,0-4.1-4C61.2,5.8,59.7,5.7,58.3,5.6Z"/>
	<path class="cls-1" d="M41.4,13.3c0,.3,0,.6,0,.9s0,2.5,0,3.7.5,1.7,1.8,1.7h.4v1.2H36.3V19.5H37a1.3,1.3,0,0,0,1.4-1.4c0-.3.1-.6.1-.9q0-4.8,0-9.6a8.2,8.2,0,0,0-.1-1,1.3,1.3,0,0,0-1.2-1.3h-.9V4.2h8.4a9.6,9.6,0,0,1,2.9.7,3.1,3.1,0,0,1,2,2.6c.3,2-.2,3.6-1.9,4.6l-.9.4c1.5.3,2,1.4,2.3,2.6s.4,1.8.7,2.6.9,1.8,2.3,1.8v1.2H48.1c-.4,0-.5-.1-.6-.4l-1-4L46,14.9A2.3,2.3,0,0,0,44,13.3Zm0-4.5c0,.9,0,1.8,0,2.7s.2.4.2.4a27,27,0,0,0,3.3-.3,2.2,2.2,0,0,0,1.8-2.1c.2-2.2-.7-3.4-2.9-3.6H41.9c-.3,0-.5.1-.5.4S41.4,7.9,41.4,8.7Z"/>
	<path class="cls-1" d="M70.7,5.3V4.2h7V5.3H76.6a1,1,0,0,0-.9.9,5,5,0,0,0-.1.9c0,2.6,0,5.2,0,7.8a8.4,8.4,0,0,0,.3,2,2.7,2.7,0,0,0,2.2,2,6.3,6.3,0,0,0,2.7,0,2.6,2.6,0,0,0,2.1-2,8.1,8.1,0,0,0,.3-1.9c0-2.6,0-5.2,0-7.9,0-.1,0-.3,0-.4a1.3,1.3,0,0,0-1.3-1.4H81V4.2h6.5V5.3H87a1.2,1.2,0,0,0-1.4,1.2,7.4,7.4,0,0,0-.1,1c0,2.6,0,5.2,0,7.9a8.4,8.4,0,0,1-.3,2,4.5,4.5,0,0,1-3.8,3.4,10.8,10.8,0,0,1-4.7-.1,5,5,0,0,1-4-4.7c0-.5-.1-1.1-.1-1.6,0-2.3,0-4.7,0-7,0-.2,0-.4,0-.6S72.1,5.4,71,5.3Z"/>
	<path class="cls-1" d="M18,5.3V4.2h7V5.3h-.9a1.2,1.2,0,0,0-1.2,1.3c0,.5,0,.9,0,1.4,0,2.5,0,4.9,0,7.4a5.8,5.8,0,0,0,.1,1.1c.4,1.8,1.3,2.6,3.3,2.7h1.4a3,3,0,0,0,2.6-2.8,11.3,11.3,0,0,0,.1-1.5c0-2.4,0-4.8,0-7.2,0-.1,0-.1,0-.2,0-1.6-.4-2-2-2h-.3V4.2h6.5V5.3h-.9a1.1,1.1,0,0,0-1,.9,4.9,4.9,0,0,0-.1,1c0,2.7,0,5.3,0,8a9.3,9.3,0,0,1-.4,2.3A4.3,4.3,0,0,1,29,20.8a10.3,10.3,0,0,1-5.5-.1,5.2,5.2,0,0,1-3.7-5.4c0-2.6,0-5.2,0-7.7a6.4,6.4,0,0,0,0-.9c-.1-1-.5-1.3-1.5-1.3Z"/>
	<path class="cls-1" d="M102.2,4.3V8.5h-1.3V7.4c-.1-.9-.5-1.4-1.4-1.5H94.2v5.6l2.8-.2c.5-.1.7-.5.8-1s.1-.6.1-1h1.2v5.8H98c0-.3-.1-.7-.1-1a1.1,1.1,0,0,0-1-1H94.2V19h4.9a1.7,1.7,0,0,0,1.7-1.8V15.8h1.3v4.9H88.9V19.5h.8a1.3,1.3,0,0,0,1.4-1.4c.1-1,.1-2.1.1-3.1s0-4.9,0-7.4c0-.2,0-.3,0-.5s-.5-1.8-1.9-1.8H89v-1Z"/>
	<path class="cls-1" d="M51.2,23h50.4c.3,0,.7-.1.6.5l-.3.3H.9c-.3,0-.8.1-.7-.4L.5,23H51.2Z"/>
	<path class="cls-1" d="M12.5,26.7h1.9c.1,0,.2.2.3.3l1.6,3.4.3.4a3.1,3.1,0,0,0,0-.4c0-.8,0-1.6,0-2.4s.1-1.1-.7-1.2a3.2,3.2,0,0,1,2.1-.1h0c-.6.2-.7.6-.7,1.2s0,2.3,0,3.4-.1.4-.5.5a1.1,1.1,0,0,1-1.3-.8c-.4-1-.9-2-1.4-3.1l-.3-.5h-.2c0,.3,0,.6,0,.9s.1,1.5.1,2.2,0,.7.5.7l.2.2-.2.2H12.7l-.2-.2.2-.2a.6.6,0,0,0,.4-.7c0-1.1,0-2.1,0-3.2S12.7,27.1,12.5,26.7Z"/>
	<path class="cls-1" d="M55.5,26.8h2.9c1.1.1,1.8.9,1.4,1.8a3.8,3.8,0,0,1-.6.8c.5.3.6.8.7,1.3s.2.8.7.9v.2l-.2.2H59.3c-.1,0-.2-.2-.3-.3s-.2-.9-.3-1.3a1.4,1.4,0,0,0-.6-.7c-.7-.3-.9-.1-.9.6s0,.4,0,.7.1.6.5.7l.2.2H55.5l.2-.2a.5.5,0,0,0,.4-.6q0-1.6,0-3.3a.8.8,0,0,0-.7-.8Zm1.8,1.4h0a6,6,0,0,0,0,.7v.3a3.5,3.5,0,0,0,1.2-.2c.4-.2.3-.7.3-1.1s-.4-.5-.7-.6-.8,0-.8.7S57.3,28.1,57.3,28.2Z"/>
	<path class="cls-1" d="M4.1,26.8H6.2c-.9.3-.6,1.1-.6,1.7s0,1.4-.1,2.1A1.4,1.4,0,0,1,4.3,32H2.7a1.5,1.5,0,0,1-1.3-1.6c0-.7,0-1.4,0-2.1s.2-1.1-.6-1.4H3c-.6.2-.6.6-.6,1.1s0,1.5,0,2.2.3,1.1.9,1.1,1.4-.2,1.4-1a24.7,24.7,0,0,0,0-2.8C4.7,27.3,4.3,27.1,4.1,26.8Z"/>
	<path class="cls-1" d="M44.8,26.8h3.6c.4,0,.6.1.5.5a7.4,7.4,0,0,0,0,.8h-.1l-.2-.2c-.1-.6-.5-.7-1-.7s-1.2-.2-1.2,1.2-.1.6.3.6.7,0,.9-.4l.2-.3a1.3,1.3,0,0,1,.2.4,7.8,7.8,0,0,1,0,1,1.1,1.1,0,0,1-.2.3l-.2-.2-.3-.3c-.5-.2-.8,0-.8.5s0,.7,0,1,.1.4.4.4h1c.5,0,.7-.2.8-.7l.2-.3a1.1,1.1,0,0,1,.2.4c0,1.4.2,1.2-1.1,1.2H45.2l-.4-.2.3-.3c.1-.2.3-.3.3-.5s0-2.3,0-3.4S45,27.1,44.8,26.8Z"/>
	<path class="cls-1" d="M68.7,32.1l-1.4-.2a.4.4,0,0,1-.4-.4c0-.2,0-.5,0-.7l.3-.2.3.2a1.3,1.3,0,0,0,1.9.8,1,1,0,0,0,.4-.7,1,1,0,0,0-.4-.7l-1.7-.8a1.2,1.2,0,0,1-.7-1.2,1.3,1.3,0,0,1,.7-1.1,4.1,4.1,0,0,1,3-.1c.1,0,.2.2.2.3a3.2,3.2,0,0,1,0,.8l-.3.3-.3-.2a1.2,1.2,0,0,0-1.8-.7.8.8,0,0,0,.1,1.4l1.5.7a1.4,1.4,0,0,1,.9,1.4A1.5,1.5,0,0,1,69.7,32h-1Z"/>
	<path class="cls-1" d="M35.2,26.9c-1,.3-.5.9-.3,1.4l.8,2.3.2.6.2-.5.9-2.8c.2-.4.1-.7-.4-.8l-.2-.2h2.1l-.2.3a4.6,4.6,0,0,0-.4.7l-1.3,3.8a.5.5,0,0,1-.6.4c-.3,0-.7.1-.9-.4L33.7,28l-.5-.9a.4.4,0,0,1,.1-.3h1.9Z"/>
	<path class="cls-1" d="M99.2,26.8c-.6.5-.6.5-.3,1.2l.5,1h.2c.3-.5.5-1.1.7-1.6s-.2-.4-.3-.6a3.1,3.1,0,0,1,1.9,0,11,11,0,0,0-1.8,2.6,2.4,2.4,0,0,0-.2,1.8c0,.1.3.2.4.4l.2.2-.2.2H98.2l.2-.2c.5-.1.5-.4.5-.7a2.7,2.7,0,0,0-.5-2h0l-1.3-2Z"/>
	<path class="cls-1" d="M88.5,26.7h1.9c.3,0,.4.1.4.4s0,.5,0,.7l-.2.3-.2-.2c-.2-.6-.5-.8-1-.7a.5.5,0,0,0-.3.3c0,1.2,0,2.3,0,3.5a.5.5,0,0,0,.5.6l.2.2-.3.2h-2l-.3-.2.2-.2c.4-.1.5-.4.5-.7s0-2.2,0-3.3-.1-.4-.4-.4-.8.1-1,.7l-.2.2-.2-.2a3.5,3.5,0,0,1,0-.9l.4-.2Z"/>
	<path class="cls-1" d="M77.4,26.8h2.4c0,.1,0,.1,0,.1s-.7.7-.7,1.2,0,1.7,0,2.6,0,.8.6.9v.2H77.4l.2-.2c.4-.1.5-.4.5-.7s0-2,0-3,0-.8-.6-.9h-.1A.6.6,0,0,1,77.4,26.8Z"/>
	<path class="cls-1" d="M24.6,26.8h2.3c-1,.3-.7,1.1-.7,1.7s0,1.5,0,2.2.1.7.5.8l.2.2-.2.2H24.8l-.3-.2.2-.2a.6.6,0,0,0,.4-.7c0-1.1,0-2.2,0-3.2S24.8,27.1,24.6,26.8Z"/>
	<path class="cls-1" d="M57.3,28.2q0-.1,0-.3c0-.7.1-.8.8-.7s.7.2.7.6.2.9-.3,1.1a3.5,3.5,0,0,1-1.2.2v-.3a6,6,0,0,1,0-.7Z"/>
</svg>